{"asset":{"generator":"3D Builder","version":"2.0"},"scene":0,"scenes":[{"nodes":[0,1]}],"nodes":[{"mesh":0,"matrix":[0.99999994039535522,0,0,0,0,-1.1920928244535389E-7,-0.99999982118606567,0,0,0.99999982118606567,-1.1920928244535389E-7,0,-0.015092100016772747,1.1183595383101874E-8,0.093814782798290253,1]},{"mesh":1,"matrix":[0.78740096092224121,0,0,0,0,-9.3865509143142845E-8,-0.78740084171295166,0,0,0.78740084171295166,-4.1066115841204009E-8,0,0.06630919873714447,0.039998088032007217,-0.073422893881797791,1]}],"meshes":[{"primitives":[{"attributes":{"POSITION":0},"mode":4,"indices":1,"material":0}]},{"primitives":[{"attributes":{"POSITION":2},"mode":4,"indices":3,"material":1}]}],"materials":[{"name":"Green","pbrMetallicRoughness":{"baseColorFactor":[0.015208514407277107,0.49693304300308228,0.072271861135959625,1],"metallicFactor":0,"roughnessFactor":1},"alphaMode":"OPAQUE"},{"name":"Orange","pbrMetallicRoughness":{"baseColorFactor":[1,0.21223078668117523,0.018500218167901039,1],"metallicFactor":0,"roughnessFactor":1},"alphaMode":"OPAQUE"}],"accessors":[{"bufferView":0,"byteOffset":0,"count":8,"componentType":5126,"type":"VEC3","min":[0,0.042998004704713821,0],"max":[0.039998002350330353,0.082998007535934448,0.039998002350330353]},{"bufferView":1,"byteOffset":0,"count":36,"componentType":5125,"type":"SCALAR"},{"bufferView":2,"byteOffset":0,"count":97,"componentType":5126,"type":"VEC3","min":[-0.10961300134658813,-0.1186470091342926,-9.90071029605133E-8],"max":[-0.058812603354454041,-0.067847400903701782,0.0507999025285244]},{"bufferView":3,"byteOffset":0,"count":570,"componentType":5125,"type":"SCALAR"}],"bufferViews":[{"buffer":0,"byteOffset":0,"byteLength":96,"byteStride":12,"target":34962},{"buffer":0,"byteOffset":96,"byteLength":144,"target":34963},{"buffer":0,"byteOffset":240,"byteLength":1164,"byteStride":12,"target":34962},{"buffer":0,"byteOffset":1404,"byteLength":2280,"target":34963}],"buffers":[{"byteLength":3684,"uri":"demo2.bin"}]}